<svg width="16" height="15" viewBox="0 0 16 15" fill="none" xmlns="http://www.w3.org/2000/svg">
<path d="M7.7384 0.49579C7.85088 0.225361 8.23396 0.225361 8.34644 0.49579L10.1425 4.81408C10.1899 4.92809 10.2972 5.00598 10.4202 5.01585L15.0822 5.38961C15.3742 5.41301 15.4925 5.77735 15.2701 5.96788L11.7182 9.01049C11.6244 9.09081 11.5835 9.21686 11.6121 9.33695L12.6973 13.8862C12.7653 14.1711 12.4553 14.3964 12.2054 14.2437L8.21405 11.8057C8.10869 11.7414 7.97615 11.7414 7.87079 11.8057L3.87949 14.2437C3.62954 14.3964 3.31962 14.1711 3.38757 13.8862L4.47274 9.33695C4.5014 9.21686 4.46044 9.09081 4.36667 9.01049L0.814747 5.96788C0.592311 5.77735 0.710693 5.41301 1.00264 5.38961L5.66461 5.01585C5.78768 5.00598 5.8949 4.92809 5.94232 4.81408L7.7384 0.49579Z" fill="#DEA453"/>
</svg>
