<svg width="14" height="9" viewBox="0 0 14 9" fill="none" xmlns="http://www.w3.org/2000/svg">
<path d="M0.597656 4.12912C0.318397 4.12912 0.0920123 4.35551 0.0920122 4.63477C0.0920122 4.91403 0.318397 5.14041 0.597656 5.14041L0.597656 4.12912ZM12.955 4.99231C13.1525 4.79484 13.1525 4.47469 12.955 4.27722L9.73709 1.05932C9.53962 0.861857 9.21947 0.861857 9.022 1.05932C8.82453 1.25679 8.82453 1.57695 9.022 1.77441L11.8824 4.63477L9.022 7.49512C8.82453 7.69259 8.82453 8.01274 9.022 8.21021C9.21947 8.40768 9.53962 8.40768 9.73709 8.21021L12.955 4.99231ZM0.597656 5.14041L12.5974 5.14041L12.5974 4.12912L0.597656 4.12912L0.597656 5.14041Z" fill="black"/>
</svg>
