<svg width="33" height="33" viewBox="0 0 33 33" fill="none" xmlns="http://www.w3.org/2000/svg">
<path d="M26.2016 15.8809V16.5551C26.2016 16.9274 25.8998 17.2293 25.5274 17.2293H17.7742V24.9825C17.7742 25.3548 17.4723 25.6566 17.1 25.6566H16.4258C16.0535 25.6566 15.7516 25.3548 15.7516 24.9825V17.2293H7.99841C7.62607 17.2293 7.32422 16.9274 7.32422 16.5551V15.8809C7.32422 15.5086 7.62607 15.2067 7.99841 15.2067H15.7516V7.45348C15.7516 7.08114 16.0535 6.7793 16.4258 6.7793H17.1C17.4723 6.7793 17.7742 7.08114 17.7742 7.45348V15.2067H25.5274C25.8998 15.2067 26.2016 15.5086 26.2016 15.8809Z" fill="#322D2D"/>
</svg>
