<svg width="39" height="39" viewBox="0 0 39 39" fill="none" xmlns="http://www.w3.org/2000/svg">
<path d="M32.5571 30.605L27.4222 25.4701C28.9784 23.4329 29.8319 20.9618 29.8323 18.3543C29.8323 15.212 28.6084 12.2575 26.3861 10.0356C24.1642 7.81368 21.2101 6.58984 18.0674 6.58984C14.9251 6.58984 11.9707 7.81368 9.74875 10.0356C5.16188 14.6229 5.16188 22.0865 9.74875 26.673C11.9707 28.8953 14.9251 30.1191 18.0674 30.1191C20.6749 30.1188 23.146 29.2653 25.1833 27.709L30.3182 32.844C30.627 33.1532 31.0325 33.3078 31.4376 33.3078C31.8427 33.3078 32.2482 33.1532 32.5571 32.844C33.1756 32.2259 33.1756 31.2231 32.5571 30.605ZM11.9877 24.434C8.63547 21.0818 8.63585 15.6271 11.9877 12.2745C13.6116 10.651 15.7709 9.75651 18.0674 9.75651C20.3643 9.75651 22.5233 10.651 24.1472 12.2745C25.7711 13.8985 26.6656 16.0578 26.6656 18.3543C26.6656 20.6512 25.7711 22.8101 24.1472 24.434C22.5233 26.058 20.3643 26.9525 18.0674 26.9525C15.7709 26.9525 13.6116 26.058 11.9877 24.434Z" fill="#322D2D"/>
</svg>
