<svg width="52" height="52" viewBox="0 0 52 52" fill="none" xmlns="http://www.w3.org/2000/svg">
<path fill-rule="evenodd" clip-rule="evenodd" d="M44.839 14.1758C44.7709 14.0454 44.6765 13.9305 44.5617 13.8383C44.4469 13.7462 44.3142 13.6789 44.1721 13.6407C44.03 13.6025 43.8815 13.5942 43.736 13.6163C43.5905 13.6384 43.4511 13.6904 43.3267 13.7691C43.2024 13.8478 43.0957 13.9515 43.0134 14.0735C42.9311 14.1955 42.8751 14.3333 42.8488 14.4781C42.8225 14.6229 42.8265 14.7716 42.8606 14.9148C42.8947 15.058 42.9581 15.1925 43.0469 15.3099C44.9797 18.377 46.0548 21.9063 46.1601 25.5301C46.2653 29.1539 45.397 32.7397 43.6455 35.9138C41.894 39.088 39.3234 41.7344 36.2015 43.5774C33.0796 45.4205 29.5206 46.3927 25.8953 46.3928C20.8895 46.3981 16.0617 44.5359 12.3561 41.1703L14.3163 39.2101C14.5452 39.452 14.8209 39.6449 15.1265 39.7773C15.4321 39.9096 15.7614 39.9786 16.0944 39.9802H35.6962C36.3541 39.9775 36.9858 39.7218 37.4604 39.2661C37.9249 38.7962 38.1864 38.1627 38.1884 37.502V19.7203C38.1877 19.4998 38.1192 19.2848 37.9924 19.1043L36.5923 17.0181L41.7868 11.7676C41.8867 11.6687 41.966 11.5509 42.0201 11.4211C42.0742 11.2914 42.1021 11.1522 42.1021 11.0116C42.1021 10.8709 42.0742 10.7317 42.0201 10.602C41.966 10.4722 41.8867 10.3544 41.7868 10.2555C37.9035 6.29392 32.6885 3.91406 27.1513 3.57666C21.6142 3.23926 16.1488 4.96831 11.8133 8.42907C7.47772 11.8898 4.58044 16.8361 3.68232 22.3104C2.78421 27.7846 3.94915 33.3974 6.95161 38.062C7.01972 38.1925 7.11416 38.3074 7.22895 38.3995C7.34375 38.4916 7.4764 38.5589 7.61853 38.5971C7.76066 38.6354 7.90917 38.6437 8.05468 38.6216C8.20019 38.5995 8.33953 38.5474 8.4639 38.4687C8.58827 38.39 8.69496 38.2864 8.77723 38.1643C8.8595 38.0423 8.91556 37.9045 8.94186 37.7597C8.96816 37.6149 8.96414 37.4662 8.93004 37.323C8.89594 37.1799 8.83252 37.0453 8.74377 36.9279C6.81093 33.8608 5.73587 30.3315 5.63058 26.7077C5.52529 23.0839 6.39363 19.4982 8.14513 16.324C9.89663 13.1499 12.4672 10.5035 15.5891 8.66042C18.711 6.81739 22.27 5.84519 25.8953 5.84509C30.9012 5.83975 35.729 7.70197 39.4345 11.0676L35.2342 15.2679L33.9461 13.4338C33.8405 13.2983 33.7071 13.187 33.555 13.1073C33.4029 13.0276 33.2354 12.9814 33.064 12.9717H18.6987C18.5253 12.9722 18.3546 13.0144 18.2011 13.0948C18.0475 13.1752 17.9156 13.2915 17.8166 13.4338L13.8262 19.1183C13.7213 19.3089 13.6547 19.5182 13.6302 19.7343V36.8719L10.0739 40.4562C9.97398 40.5552 9.89468 40.6729 9.84056 40.8027C9.78643 40.9325 9.75857 41.0717 9.75857 41.2123C9.75857 41.3529 9.78643 41.4921 9.84056 41.6219C9.89468 41.7517 9.97398 41.8694 10.0739 41.9684C13.9757 45.8402 19.1648 48.1424 24.6538 48.4367C30.1427 48.7311 35.5483 46.9971 39.8418 43.5647C44.1353 40.1323 47.017 35.2412 47.9384 29.8221C48.8599 24.4031 47.7568 18.8344 44.839 14.1758ZM15.7584 37.502V20.7844H28.0235V37.852H16.0944C16.0052 37.8452 15.9216 37.8057 15.8596 37.7411C15.7976 37.6765 15.7616 37.5914 15.7584 37.502ZM36.0322 37.502C36.0286 37.5961 35.9887 37.6851 35.9208 37.7504C35.8529 37.8156 35.7624 37.8521 35.6682 37.852H30.1657V20.0564L33.092 15.856L36.0322 20.0564V37.502ZM19.2307 15.0999H31.0338L28.5276 18.6562H16.7525L19.2307 15.0999Z" fill="#322D2D"/>
<path fill-rule="evenodd" clip-rule="evenodd" d="M23.0932 17.9146C23.3014 17.9146 23.505 17.8527 23.678 17.7367C23.851 17.6206 23.9855 17.4558 24.0646 17.2631C24.1436 17.0704 24.1636 16.8586 24.1219 16.6545C24.0803 16.4504 23.9789 16.2633 23.8306 16.1171C23.6823 15.9708 23.4939 15.8719 23.2893 15.833C23.0847 15.794 22.8731 15.8168 22.6815 15.8985C22.4899 15.9801 22.3269 16.1169 22.2132 16.2914C22.0995 16.4659 22.0403 16.6703 22.0431 16.8785C22.0467 17.1546 22.159 17.4181 22.3555 17.612C22.5521 17.806 22.8171 17.9147 23.0932 17.9146Z" fill="#322D2D"/>
</svg>
