<svg width="45" height="46" viewBox="0 0 45 46" fill="none" xmlns="http://www.w3.org/2000/svg">
<circle cx="22.5095" cy="23.1179" r="21.2419" stroke="#322D2D" stroke-width="2.1602"/>
<g clip-path="url(#clip0_625_1892)">
<path d="M35.0278 28.2568L32.1167 25.3457C35.4558 18.3391 30.3235 10.1562 22.512 10.1562C14.7141 10.1562 9.56158 18.325 12.9073 25.3457L9.99623 28.2568C9.18606 29.067 9.53054 30.4496 10.6291 30.7842L13.8627 31.7664L14.8449 35C15.1781 36.0942 16.5579 36.4458 17.3723 35.6329L21.622 31.3831C22.2062 31.4316 22.7979 31.4332 23.4021 31.3831L27.6518 35.6329C28.4633 36.4443 29.8453 36.0964 30.1792 35L31.1614 31.7664L34.395 30.7842C35.4953 30.4491 35.8366 29.0656 35.0278 28.2568ZM16.2984 34.5585L15.3158 31.3249C15.1684 30.8389 14.7902 30.4607 14.3043 30.3129L11.0706 29.3307L13.6881 26.7132C15.1098 28.8234 17.2675 30.3985 19.7904 31.0668L16.2984 34.5585ZM14.7856 25.6156C10.9699 19.5391 15.4093 11.6751 22.512 11.6751C29.6721 11.6751 34.0199 19.5937 30.2384 25.6155C26.658 31.3256 18.3655 31.3248 14.7856 25.6156ZM30.7199 30.3128C30.2338 30.4607 29.8556 30.8389 29.7078 31.3249L28.7257 34.5585L25.2339 31.0667C27.7567 30.3984 29.9144 28.8233 31.3361 26.7131L33.9536 29.3306L30.7199 30.3128Z" fill="#322D2D"/>
<path d="M22.5099 13.1934C17.4277 13.1934 13.7535 18.1265 15.2457 23.0046C16.5171 27.1707 21.0272 29.3843 25.0615 27.9408C27.9999 26.8892 30.1041 24.0781 30.1041 20.7876C30.1041 16.6001 26.6973 13.1934 22.5099 13.1934ZM18.4141 25.2702C14.3132 21.5271 17.011 14.7122 22.5099 14.7122C26.2523 14.7122 29.101 18.0796 28.5098 21.7404C27.766 26.4855 21.9904 28.5428 18.4141 25.2702Z" fill="#322D2D"/>
<path d="M24.8163 18.7336L21.4689 21.2183L20.3093 19.9828C20.0222 19.6769 19.5417 19.6616 19.2358 19.9487C18.93 20.2357 18.9147 20.7163 19.2018 21.0221L20.8244 22.7511C21.0885 23.0325 21.5214 23.0709 21.8308 22.8412L25.7216 19.9533C26.0584 19.7033 26.1287 19.2276 25.8787 18.8908C25.6288 18.5541 25.1531 18.4837 24.8163 18.7336Z" fill="#322D2D"/>
<circle cx="22.5106" cy="20.9578" r="7.92072" fill="#F9F9F9"/>
<path d="M20.3736 22.9355H19.2224L17.4065 19.5642V22.9355H16.4608V18.1389H17.66L19.4348 21.4828V18.1389H20.3736V22.9355ZM24.8167 21.4486C24.8167 22.5038 24.0492 23.0109 22.8569 23.0109C21.7879 23.0109 21.0205 22.497 20.9931 21.4212H21.9729C21.9729 21.9488 22.3087 22.2092 22.898 22.2092C23.3023 22.2092 23.8642 22.0996 23.8642 21.5582C23.8642 20.7702 22.2402 21.1402 21.4796 20.4687C21.2534 20.27 21.0753 19.9479 21.0753 19.4819C21.0753 18.5363 21.9181 18.0635 22.8432 18.0635C23.8025 18.0635 24.6591 18.413 24.7345 19.5642H23.7614C23.734 19.3038 23.6586 18.8447 22.8638 18.8447C22.3156 18.8447 22.0415 19.0708 22.0415 19.4134C22.0415 20.1329 23.2749 19.9479 24.104 20.3522C24.4946 20.5372 24.8167 20.8456 24.8167 21.4486ZM28.7313 18.9817H26.3467V20.2494H28.5669V21.106H26.3467V22.9355H25.4011V18.1389H28.7313V18.9817Z" fill="#322D2D"/>
</g>
<defs>
<clipPath id="clip0_625_1892">
<rect width="25.9223" height="25.9223" fill="white" transform="translate(9.54688 10.1562)"/>
</clipPath>
</defs>
</svg>
