<svg width="45" height="46" viewBox="0 0 45 46" fill="none" xmlns="http://www.w3.org/2000/svg">
<circle cx="22.6423" cy="23.1179" r="21.242" stroke="#322D2D" stroke-width="2.16"/>
<g clip-path="url(#clip0_625_1873)">
<path d="M32.5236 23.5507L30.2559 17.138C29.2079 14.1751 26.5313 12.1078 23.4482 11.7995V10.1562H21.8449V11.7995C18.7619 12.1078 16.0852 14.1752 15.0372 17.1381L12.7695 23.5507C12.373 24.6719 12.1719 25.8472 12.1719 27.044C12.1719 32.8198 16.8708 37.5187 22.6466 37.5187C28.4224 37.5187 33.1213 32.8198 33.1213 27.044C33.1213 25.8472 32.9202 24.6719 32.5236 23.5507ZM22.6466 35.9155C17.7548 35.9155 13.7751 31.9358 13.7751 27.044C13.7751 26.0299 13.9454 25.0344 14.281 24.0852L16.5487 17.6726C17.4606 15.0947 19.9111 13.3628 22.6466 13.3628C25.3821 13.3628 27.8326 15.0947 28.7444 17.6726L31.0121 24.0853C31.3478 25.0344 31.518 26.0298 31.518 27.044C31.518 31.9358 27.5383 35.9155 22.6466 35.9155Z" fill="#322D2D"/>
<path d="M22.6493 21.3789C19.5256 21.3789 16.9844 23.9202 16.9844 27.0438C16.9844 30.1674 19.5256 32.7087 22.6493 32.7087C25.7729 32.7087 28.3142 30.1674 28.3142 27.0438C28.3142 23.9202 25.7729 21.3789 22.6493 21.3789ZM22.6493 31.1054C20.4097 31.1054 18.5876 29.2833 18.5876 27.0438C18.5876 24.8042 20.4097 22.9822 22.6493 22.9822C24.8888 22.9822 26.7109 24.8042 26.7109 27.0438C26.7109 29.2833 24.8888 31.1054 22.6493 31.1054Z" fill="#322D2D"/>
</g>
<defs>
<clipPath id="clip0_625_1873">
<rect width="27.3625" height="27.3625" fill="white" transform="translate(8.96484 10.1562)"/>
</clipPath>
</defs>
</svg>
