<svg width="46" height="46" viewBox="0 0 46 46" fill="none" xmlns="http://www.w3.org/2000/svg">
<circle cx="22.7087" cy="23.1179" r="21.242" stroke="#322D2D" stroke-width="2.16"/>
<g clip-path="url(#clip0_697_226)">
<path d="M31.7836 10.6172C31.4086 10.644 31.0604 10.8404 30.9265 11.1976C30.3015 12.8672 27.7746 13.9655 25.1049 15.1173C20.0333 17.3138 13.1135 20.3049 15.0689 29.823C13.7385 31.2784 12.6581 33.1178 12.1313 35.6625C12.0331 36.1446 12.3456 36.6179 12.8278 36.7161C12.8903 36.725 12.9528 36.7339 13.0064 36.7339C13.4171 36.7339 13.7921 36.4482 13.8814 36.0196C14.31 33.966 15.1225 32.457 16.1761 31.2338C17.2922 31.9481 19.5958 33.1624 22.4709 33.1624C24.5245 33.1624 26.8728 32.5463 29.2836 30.6981C36.9891 24.7872 32.7837 11.7779 32.6051 11.2243C32.4979 10.8672 32.1676 10.6172 31.7836 10.6172ZM28.2121 29.2784C23.5334 32.8678 19.2744 31.0463 17.4886 29.957C18.6047 29.0016 19.8726 28.2159 21.1762 27.4212C23.7745 25.8229 26.4621 24.1711 27.6942 20.9746C27.8728 20.5103 27.6407 20.0014 27.1853 19.8228C26.721 19.6442 26.2121 19.8764 26.0335 20.3317C25.0156 22.9657 22.6941 24.3854 20.2476 25.8944C19.0601 26.6265 17.8101 27.3944 16.6493 28.3409C15.6939 21.1442 20.828 18.912 25.8281 16.7513C27.9978 15.8138 30.0782 14.9119 31.4086 13.6083C32.2211 17.2334 33.3372 25.3408 28.2121 29.2784Z" fill="#322D2D"/>
</g>
<defs>
<clipPath id="clip0_697_226">
<rect width="27.3625" height="27.3625" fill="white" transform="translate(9.03125 10.1562)"/>
</clipPath>
</defs>
</svg>
